<svg height="2078" width="720" xmlns="http://www.w3.org/2000/svg">
<rect height="2078" fill="#555" width="720"></rect>
<text fill="#7f7" font-family="Courier New" font-size="12" xml:space="preserve">
<tspan x="10" y="26"></tspan>
<tspan x="10" y="42">&gt; npmdoc-csv-parse@0.0.1 test /home/travis/build/npmdoc/node-npmdoc-csv-parse</tspan>
<tspan x="10" y="58">&gt; (set -e; export PORT=$(utility2 shServerPortRandom); utility2 test test.js)</tspan>
<tspan x="10" y="74"></tspan>
<tspan x="10" y="90"></tspan>
<tspan x="10" y="106">[MODE_BUILD=npmTest] - 2017-04-06T18:36:11Z - npm-testing /home/travis/build/npmdoc/node-npmdoc-\</tspan>
<tspan x="10" y="122">csv-parse</tspan>
<tspan x="10" y="138"></tspan>
<tspan x="10" y="154"></tspan>
<tspan x="10" y="170">covering $ /home/travis/.nvm/versions/node/v6.10.2/bin/node /home/travis/build/npmdoc/node-npmdo\</tspan>
<tspan x="10" y="186">c-csv-parse/test.js</tspan>
<tspan x="10" y="202">merging file:///home/travis/build/npmdoc/node-npmdoc-csv-parse/tmp/build/test-report.json to tes\</tspan>
<tspan x="10" y="218">t-report</tspan>
<tspan x="10" y="234">&gt; server listening on http-port 42382</tspan>
<tspan x="10" y="250">created apidoc file:///home/travis/build/npmdoc/node-npmdoc-csv-parse/tmp/build/apidoc.html</tspan>
<tspan x="10" y="266"></tspan>
<tspan x="10" y="282"></tspan>
<tspan x="10" y="298">browserTest - created electron entry-page /home/travis/build/npmdoc/node-npmdoc-csv-parse/tmp/el\</tspan>
<tspan x="10" y="314">ectron.15b448d70410.810f096657736.html</tspan>
<tspan x="10" y="330"></tspan>
<tspan x="10" y="346">[node test-case 1 of 6 passed] - testCase_buildLib_default</tspan>
<tspan x="10" y="362">[node test-case 2 of 6 passed] - testCase_buildReadme_default</tspan>
<tspan x="10" y="378">[node test-case 3 of 6 passed] - testCase_buildTest_default</tspan>
<tspan x="10" y="394"></tspan>
<tspan x="10" y="410">browserTest - created electron entry-page /home/travis/build/npmdoc/node-npmdoc-csv-parse/tmp/el\</tspan>
<tspan x="10" y="426">ectron.15b448d707c0.77ddd1c2d94b6.html</tspan>
<tspan x="10" y="442"></tspan>
<tspan x="10" y="458">Xlib:  extension "RANDR" missing on display ":99.0".</tspan>
<tspan x="10" y="474">[ { Foo: 'first', Bar: 'row', Baz: 'items' },</tspan>
<tspan x="10" y="490">  { Foo: 'second', Bar: 'row', Baz: 'items' } ]</tspan>
<tspan x="10" y="506">[ [ 'abc', '123' ], [ 'def', '456' ], [ 'ghi', '789' ] ]</tspan>
<tspan x="10" y="522">Xlib:  extension "RANDR" missing on display ":99.0".</tspan>
<tspan x="10" y="538">merging file:///home/travis/build/npmdoc/node-npmdoc-csv-parse/tmp/build/test-report.json to tes\</tspan>
<tspan x="10" y="554">t-report</tspan>
<tspan x="10" y="570">merging file:///home/travis/build/npmdoc/node-npmdoc-csv-parse/tmp/build/test-report.json to tes\</tspan>
<tspan x="10" y="586">t-report</tspan>
<tspan x="10" y="602">Xlib:  extension "RANDR" missing on display ":99.0".</tspan>
<tspan x="10" y="618">Xlib:  extension "RANDR" missing on display ":99.0".</tspan>
<tspan x="10" y="634">[6241:0406/183612:WARNING:audio_manager.cc(314)] Multiple instances of AudioManager detected</tspan>
<tspan x="10" y="650">[6241:0406/183612:WARNING:audio_manager.cc(275)] Multiple instances of AudioManager detected</tspan>
<tspan x="10" y="666">[6245:0406/183612:WARNING:audio_manager.cc(314)] Multiple instances of AudioManager detected</tspan>
<tspan x="10" y="682">[6245:0406/183612:WARNING:audio_manager.cc(275)] Multiple instances of AudioManager detected</tspan>
<tspan x="10" y="698">&gt; server listening on http-port 45712</tspan>
<tspan x="10" y="714">[6272:0406/183612:ERROR:sandbox_linux.cc(343)] InitializeSandbox() called with multiple threads \</tspan>
<tspan x="10" y="730">in process gpu-process. </tspan>
<tspan x="10" y="746">[6286:0406/183612:ERROR:sandbox_linux.cc(343)] InitializeSandbox() called with multiple threads \</tspan>
<tspan x="10" y="762">in process gpu-process. </tspan>
<tspan x="10" y="778">[6241:0406/183612:ERROR:browser_gpu_channel_host_factory.cc(131)] Failed to create channel.</tspan>
<tspan x="10" y="794">[6245:0406/183612:ERROR:browser_gpu_channel_host_factory.cc(131)] Failed to create channel.</tspan>
<tspan x="10" y="810"></tspan>
<tspan x="10" y="826">browserTest - opened url /home/travis/build/npmdoc/node-npmdoc-csv-parse/tmp/build/apidoc.html</tspan>
<tspan x="10" y="842"></tspan>
<tspan x="10" y="858"></tspan>
<tspan x="10" y="874">browserTest - opened url http://127.0.0.1:42382?modeTest=1</tspan>
<tspan x="10" y="890"></tspan>
<tspan x="10" y="906">[6245:0406/183614:INFO:CONSOLE(250)] "----------|-----------|-----------|-----------|-----------\</tspan>
<tspan x="10" y="922">|</tspan>
<tspan x="10" y="938">File      |   % Stmts |% Branches |   % Funcs |   % Lines |</tspan>
<tspan x="10" y="954">----------|-----------|-----------|-----------|-----------|</tspan>
<tspan x="10" y="970">----------|-----------|-----------|-----------|-----------|</tspan>
<tspan x="10" y="986">All files |       100 |       100 |       100 |       100 |</tspan>
<tspan x="10" y="1002">----------|-----------|-----------|-----------|-----------|</tspan>
<tspan x="10" y="1018">", source: file:///home/travis/build/npmdoc/node-npmdoc-csv-parse/tmp/electron.15b448d707c0.77dd\</tspan>
<tspan x="10" y="1034">d1c2d94b6.html (250)</tspan>
<tspan x="10" y="1050">[6245:0406/183614:INFO:CONSOLE(250)] "created coverage file:///tmp/build/coverage.html/index.htm\</tspan>
<tspan x="10" y="1066">l", source: file:///home/travis/build/npmdoc/node-npmdoc-csv-parse/tmp/electron.15b448d707c0.77d\</tspan>
<tspan x="10" y="1082">dd1c2d94b6.html (250)</tspan>
<tspan x="10" y="1098">[node test-case 4 of 6 passed] - testCase_buildApp_default</tspan>
<tspan x="10" y="1114"></tspan>
<tspan x="10" y="1130">browserTest - created screenCapture file:///home/travis/build/npmdoc/node-npmdoc-csv-parse/tmp/b\</tspan>
<tspan x="10" y="1146">uild/screenCapture.npmTest.browser._2Fhome_2Ftravis_2Fbuild_2Fnpmdoc_2Fnode-npmdoc-csv-parse_2Ft\</tspan>
<tspan x="10" y="1162">mp_2Fbuild_2Fapidoc.html.png</tspan>
<tspan x="10" y="1178"></tspan>
<tspan x="10" y="1194">browserTest - created screenCapture file:///home/travis/build/npmdoc/node-npmdoc-csv-parse/tmp/b\</tspan>
<tspan x="10" y="1210">uild/screenCapture.npmTest.browser._2Fhome_2Ftravis_2Fbuild_2Fnpmdoc_2Fnode-npmdoc-csv-parse_2Ft\</tspan>
<tspan x="10" y="1226">mp_2Fbuild_2Fapidoc.html.html</tspan>
<tspan x="10" y="1242"></tspan>
<tspan x="10" y="1258">browserTest - exit-code 0 - /home/travis/build/npmdoc/node-npmdoc-csv-parse/tmp/build/apidoc.htm\</tspan>
<tspan x="10" y="1274">l</tspan>
<tspan x="10" y="1290"></tspan>
<tspan x="10" y="1306">[node test-case 5 of 6 passed] - testCase_buildApidoc_default</tspan>
<tspan x="10" y="1322"></tspan>
<tspan x="10" y="1338">browserTest - created screenCapture file:///home/travis/build/npmdoc/node-npmdoc-csv-parse/tmp/b\</tspan>
<tspan x="10" y="1354">uild/screenCapture.npmTest.browser..png</tspan>
<tspan x="10" y="1370"></tspan>
<tspan x="10" y="1386">browserTest - created screenCapture file:///home/travis/build/npmdoc/node-npmdoc-csv-parse/tmp/b\</tspan>
<tspan x="10" y="1402">uild/screenCapture.npmTest.browser..html</tspan>
<tspan x="10" y="1418"></tspan>
<tspan x="10" y="1434">browserTest - exit-code 0 - http://127.0.0.1:42382?modeTest=1</tspan>
<tspan x="10" y="1450"></tspan>
<tspan x="10" y="1466"></tspan>
<tspan x="10" y="1482">browserTest - merged coverage from /home/travis/build/npmdoc/node-npmdoc-csv-parse/tmp/coverage.\</tspan>
<tspan x="10" y="1498">npmTest.browser.%2F.json</tspan>
<tspan x="10" y="1514"></tspan>
<tspan x="10" y="1530"></tspan>
<tspan x="10" y="1546">browserTest - merging test-report from /home/travis/build/npmdoc/node-npmdoc-csv-parse/tmp/test-\</tspan>
<tspan x="10" y="1562">report.npmTest.browser.%2F.json</tspan>
<tspan x="10" y="1578"></tspan>
<tspan x="10" y="1594">[node test-case 6 of 6 passed] - testCase_webpage_default</tspan>
<tspan x="10" y="1610">------------------------------|-----------|-----------|-----------|-----------|</tspan>
<tspan x="10" y="1626">File                          |   % Stmts |% Branches |   % Funcs |   % Lines |</tspan>
<tspan x="10" y="1642">------------------------------|-----------|-----------|-----------|-----------|</tspan>
<tspan x="10" y="1658">   node-npmdoc-csv-parse/     |       100 |       100 |       100 |       100 |</tspan>
<tspan x="10" y="1674">      example.js              |       100 |       100 |       100 |       100 |</tspan>
<tspan x="10" y="1690">      lib.npmdoc_csv_parse.js |       100 |       100 |       100 |       100 |</tspan>
<tspan x="10" y="1706">      test.js                 |       100 |       100 |       100 |       100 |</tspan>
<tspan x="10" y="1722">------------------------------|-----------|-----------|-----------|-----------|</tspan>
<tspan x="10" y="1738">All files                     |       100 |       100 |       100 |       100 |</tspan>
<tspan x="10" y="1754">------------------------------|-----------|-----------|-----------|-----------|</tspan>
<tspan x="10" y="1770"></tspan>
<tspan x="10" y="1786">created coverage file:///home/travis/build/npmdoc/node-npmdoc-csv-parse/tmp/build/coverage.html/\</tspan>
<tspan x="10" y="1802">index.html</tspan>
<tspan x="10" y="1818">merging file:///home/travis/build/npmdoc/node-npmdoc-csv-parse/tmp/build/test-report.json to tes\</tspan>
<tspan x="10" y="1834">t-report</tspan>
<tspan x="10" y="1850"></tspan>
<tspan x="10" y="1866">-------------------------------------------------------</tspan>
<tspan x="10" y="1882">| test-report - buildNpmdoc - node - linux v6.10.2 - 2017-04-06T18:35:33.288Z</tspan>
<tspan x="10" y="1898">|   53711 ms            0 failed        6 passed      |</tspan>
<tspan x="10" y="1914">-------------------------------------------------------</tspan>
<tspan x="10" y="1930"></tspan>
<tspan x="10" y="1946">created test-report file:///home/travis/build/npmdoc/node-npmdoc-csv-parse/tmp/build/test-report\</tspan>
<tspan x="10" y="1962">.html</tspan>
<tspan x="10" y="1978"></tspan>
<tspan x="10" y="1994"></tspan>
<tspan x="10" y="2010">npmTest - 0 failed tests</tspan>
<tspan x="10" y="2026"></tspan>
<tspan x="10" y="2042"></tspan>
<tspan x="10" y="2058">[MODE_BUILD=npmTest] - 2017-04-06T18:36:29Z - EXIT_CODE - 0</tspan>
</text>
</svg>
